<?xml version="1.0" encoding="utf-8"?>
<!-- Generator: Adobe Illustrator 24.1.0, SVG Export Plug-In . SVG Version: 6.00 Build 0)  -->
<svg version="1.1" id="Layer_8" xmlns="http://www.w3.org/2000/svg" xmlns:xlink="http://www.w3.org/1999/xlink" x="0px" y="0px"
	 viewBox="0 0 1191.6 248.1" style="enable-background:new 0 0 1191.6 248.1;" xml:space="preserve">
<style type="text/css">
	.st0{clip-path:url(#SVGID_2_);}
	.st1{fill:none;stroke:#898989;stroke-width:0.99;stroke-miterlimit:10;}
	.st2{fill:none;stroke:#898989;stroke-width:0.99;stroke-miterlimit:10;stroke-dasharray:3.86,3.86;}
	.st3{fill:none;stroke:#F3A251;stroke-width:0.99;stroke-miterlimit:10;}
	.st4{fill:none;stroke:#EC523E;stroke-width:0.99;stroke-miterlimit:10;stroke-dasharray:3.86,3.86;}
	.st5{fill:none;stroke:#848484;stroke-width:4;stroke-miterlimit:10;}
	.st6{fill:none;stroke:#EC523E;stroke-width:9;stroke-miterlimit:10;}
</style>
<g>
	<g>
		<g>
			<g>
				<defs>
					<polygon id="SVGID_1_" points="1188.8,239.5 0,239.3 3,-0.2 1188.8,-0.2 					"/>
				</defs>
				<clipPath id="SVGID_2_">
					<use xlink:href="#SVGID_1_"  style="overflow:visible;"/>
				</clipPath>
				<g class="st0">
					<line class="st1" x1="509.3" y1="61.5" x2="509.3" y2="63.5"/>
					<line class="st2" x1="509.3" y1="67.3" x2="509.3" y2="235.5"/>
					<line class="st1" x1="509.3" y1="237.4" x2="509.3" y2="239.4"/>
					<line class="st1" x1="422" y1="61.5" x2="422" y2="63.5"/>
					<line class="st2" x1="422" y1="67.3" x2="422" y2="235.5"/>
					<line class="st1" x1="422" y1="237.4" x2="422" y2="239.4"/>
					<line class="st1" x1="335.6" y1="61.5" x2="335.6" y2="63.5"/>
					<line class="st2" x1="335.6" y1="67.3" x2="335.6" y2="235.5"/>
					<line class="st1" x1="335.6" y1="237.4" x2="335.6" y2="239.4"/>
					<line class="st3" x1="247.6" y1="61.5" x2="247.6" y2="63.5"/>
					<line class="st4" x1="247.6" y1="67.3" x2="247.6" y2="235.5"/>
					<line class="st3" x1="247.6" y1="237.4" x2="247.6" y2="239.4"/>
					<path class="st5" d="M7,240.5c0,0,245.1-193.4,502.2-184C770.1,66.1,1190.9,243,1190.9,243"/>
					<path class="st5" d="M1187.9,243c0,0-520.4-185-763.7-185C181.6,58,5,240.1,5,240.1"/>
					<path class="st5" d="M1187.2,243c0,0-585.6-187.7-850.9-185.1c-224.3,2.3-331,181-331,181"/>
					<path class="st6" d="M1189.4,243.8c0,0-697.7-194.3-941.8-181.1C35.6,74.2,4.4,240.6,4.4,240.6"/>
				</g>
			</g>
		</g>
	</g>
</g>
</svg>
