<?xml version="1.0" encoding="utf-8"?>
<!-- Generator: Adobe Illustrator 24.1.0, SVG Export Plug-In . SVG Version: 6.00 Build 0)  -->
<svg version="1.1" id="Layer_8" xmlns="http://www.w3.org/2000/svg" xmlns:xlink="http://www.w3.org/1999/xlink" x="0px" y="0px"
	 viewBox="0 0 1189.8 247.3" style="enable-background:new 0 0 1189.8 247.3;" xml:space="preserve">
<style type="text/css">
	.st0{clip-path:url(#SVGID_2_);}
	.st1{fill:none;stroke:#898989;stroke-width:0.99;stroke-miterlimit:10;}
	.st2{fill:none;stroke:#898989;stroke-width:0.99;stroke-miterlimit:10;stroke-dasharray:3.86,3.86;}
	.st3{fill:none;stroke:#EC523E;stroke-width:0.99;stroke-miterlimit:10;stroke-dasharray:3.86,3.86;}
	.st4{fill:none;stroke:#F3A251;stroke-width:0.99;stroke-miterlimit:10;}
	.st5{fill:none;stroke:#AAAAAA;stroke-width:4;stroke-miterlimit:10;enable-background:new    ;}
	.st6{fill:none;stroke:#EC523E;stroke-width:9;stroke-miterlimit:10;}
</style>
<g>
	<g>
		<g>
			<g>
				<defs>
					<polygon id="SVGID_1_" points="1187,239.5 -1.8,239.3 1.2,-0.2 1187,-0.2 					"/>
				</defs>
				<clipPath id="SVGID_2_">
					<use xlink:href="#SVGID_1_"  style="overflow:visible;"/>
				</clipPath>
				<g class="st0">
					<line class="st1" x1="507.5" y1="61.5" x2="507.5" y2="63.5"/>
					<line class="st2" x1="507.5" y1="67.3" x2="507.5" y2="235.5"/>
					<line class="st1" x1="507.5" y1="237.4" x2="507.5" y2="239.4"/>
					<line class="st1" x1="420.2" y1="61.5" x2="420.2" y2="63.5"/>
					<line class="st3" x1="420.2" y1="67.3" x2="420.2" y2="235.5"/>
					<line class="st1" x1="420.2" y1="237.4" x2="420.2" y2="239.4"/>
					<line class="st1" x1="333.8" y1="61.5" x2="333.8" y2="63.5"/>
					<line class="st2" x1="333.8" y1="67.3" x2="333.8" y2="235.5"/>
					<line class="st1" x1="333.8" y1="237.4" x2="333.8" y2="239.4"/>
					<line class="st4" x1="245.8" y1="61.5" x2="245.8" y2="63.5"/>
					<line class="st2" x1="245.8" y1="67.3" x2="245.8" y2="235.5"/>
					<line class="st4" x1="245.8" y1="237.4" x2="245.8" y2="239.4"/>
					<path class="st5" d="M5.2,240.5c0,0,245.1-193.4,502.2-184C768.3,66.1,1189.1,243,1189.1,243"/>
					<path class="st5" d="M1187.6,243.8c0,0-697.7-194.3-941.8-181.1C33.8,74.2,2.6,240.6,2.6,240.6"/>
					<path class="st5" d="M1185.4,243c0,0-585.6-187.7-850.9-185.1c-224.3,2.2-331,180.9-331,180.9"/>
					<path class="st6" d="M1186.1,243c0,0-520.4-185-763.7-185C179.8,58,3.2,240.1,3.2,240.1"/>
				</g>
			</g>
		</g>
	</g>
</g>
</svg>
